<svg width="10" height="5" viewBox="0 0 10 5" fill="none" xmlns="http://www.w3.org/2000/svg">
<path d="M1.94212 0.28716C1.65151 0.0321984 1.20924 0.061097 0.954274 0.351706C0.699313 0.642316 0.728211 1.08459 1.01882 1.33955L1.94212 0.28716ZM5.12832 4.01373L4.66667 4.53993L5.12836 4.94498L5.59001 4.53988L5.12832 4.01373ZM9.23721 1.33951C9.5278 1.08452 9.55666 0.642247 9.30167 0.35166C9.04668 0.0610732 8.60441 0.0322134 8.31382 0.2872L9.23721 1.33951ZM1.01882 1.33955L4.66667 4.53993L5.58996 3.48754L1.94212 0.28716L1.01882 1.33955ZM5.59001 4.53988L9.23721 1.33951L8.31382 0.2872L4.66662 3.48758L5.59001 4.53988Z" fill="white"/>
</svg>
